{"url":"https://api.github.com/repos/avinashpaliwal/Super-SloMo/issues/12","repository_url":"https://api.github.com/repos/avinashpaliwal/Super-SloMo","labels_url":"https://api.github.com/repos/avinashpaliwal/Super-SloMo/issues/12/labels{/name}","comments_url":"https://api.github.com/repos/avinashpaliwal/Super-SloMo/issues/12/comments","events_url":"https://api.github.com/repos/avinashpaliwal/Super-SloMo/issues/12/events","html_url":"https://github.com/avinashpaliwal/Super-SloMo/issues/12","id":395478910,"node_id":"MDU6SXNzdWUzOTU0Nzg5MTA=","number":12,"title":"about the output result","user":{"login":"Brizel","id":13415547,"node_id":"MDQ6VXNlcjEzNDE1NTQ3","avatar_url":"https://avatars.githubusercontent.com/u/13415547?v=4","gravatar_id":"","url":"https://api.github.com/users/Brizel","html_url":"https://github.com/Brizel","followers_url":"https://api.github.com/users/Brizel/followers","following_url":"https://api.github.com/users/Brizel/following{/other_user}","gists_url":"https://api.github.com/users/Brizel/gists{/gist_id}","starred_url":"https://api.github.com/users/Brizel/starred{/owner}{/repo}","subscriptions_url":"https://api.github.com/users/Brizel/subscriptions","organizations_url":"https://api.github.com/users/Brizel/orgs","repos_url":"https://api.github.com/users/Brizel/repos","events_url":"https://api.github.com/users/Brizel/events{/privacy}","received_events_url":"https://api.github.com/users/Brizel/received_events","type":"User","site_admin":false},"labels":[],"state":"closed","locked":false,"assignee":null,"assignees":[],"milestone":null,"comments":25,"created_at":"2019-01-03T07:30:58Z","updated_at":"2019-04-09T20:25:58Z","closed_at":"2019-04-09T20:25:58Z","author_association":"NONE","active_lock_reason":null,"body":"Thanks for your work.\r\nI tried my own video like:\r\nInput #0, mov,mp4,m4a,3gp,3g2,mj2, from '/home/chenchen/PycharmProjects/Super-SloMo/0103_1.mov':\r\n  Metadata:\r\n    major_brand     : qt  \r\n    minor_version   : 0\r\n    compatible_brands: qt  \r\n    creation_time   : 2019-01-03 03:05:52\r\n  Duration: 00:00:40.33, start: 0.000000, bitrate: 5425 kb/s\r\n    Stream #0:0(und): Audio: aac (LC) (mp4a / 0x6134706D), 44100 Hz, mono, fltp, 90 kb/s (default)\r\n    Metadata:\r\n      creation_time   : 2019-01-03 03:05:52\r\n      handler_name    : Core Media Data Handler\r\n    Stream #0:1(und): Video: h264 (Main) (avc1 / 0x31637661), yuv420p(tv, bt709), 960x540, 5328 kb/s, 29.98 fps, 29.97 tbr, 600 tbn, 1200 tbc (default)\r\n    Metadata:\r\n      rotate          : 90\r\n      creation_time   : 2019-01-03 03:05:52\r\n      handler_name    : Core Media Data Handler\r\n      encoder         : H.264\r\n    Side data:\r\n      displaymatrix: rotation of -90.00 degrees\r\n    Stream #0:2(und): Data: none (mebx / 0x7862656D), 0 kb/s (default)\r\n    Metadata:\r\n      creation_time   : 2019-01-03 03:05:52\r\n      handler_name    : Core Media Data Handler\r\n    Stream #0:3(und): Data: none (mebx / 0x7862656D), 0 kb/s (default)\r\n    Metadata:\r\n      creation_time   : 2019-01-03 03:05:52\r\n      handler_name    : Core Media Data Handler\r\n\r\nand set fps = 240, sf = 8.\r\nBut the output video has only one frame(seems like the first frame of the original video) . I wonder if there's anything wrong about my configuration?","closed_by":{"login":"avinashpaliwal","id":43282710,"node_id":"MDQ6VXNlcjQzMjgyNzEw","avatar_url":"https://avatars.githubusercontent.com/u/43282710?v=4","gravatar_id":"","url":"https://api.github.com/users/avinashpaliwal","html_url":"https://github.com/avinashpaliwal","followers_url":"https://api.github.com/users/avinashpaliwal/followers","following_url":"https://api.github.com/users/avinashpaliwal/following{/other_user}","gists_url":"https://api.github.com/users/avinashpaliwal/gists{/gist_id}","starred_url":"https://api.github.com/users/avinashpaliwal/starred{/owner}{/repo}","subscriptions_url":"https://api.github.com/users/avinashpaliwal/subscriptions","organizations_url":"https://api.github.com/users/avinashpaliwal/orgs","repos_url":"https://api.github.com/users/avinashpaliwal/repos","events_url":"https://api.github.com/users/avinashpaliwal/events{/privacy}","received_events_url":"https://api.github.com/users/avinashpaliwal/received_events","type":"User","site_admin":false},"reactions":{"url":"https://api.github.com/repos/avinashpaliwal/Super-SloMo/issues/12/reactions","total_count":0,"+1":0,"-1":0,"laugh":0,"hooray":0,"confused":0,"heart":0,"rocket":0,"eyes":0},"timeline_url":"https://api.github.com/repos/avinashpaliwal/Super-SloMo/issues/12/timeline","performed_via_github_app":null,"state_reason":"completed"}